<svg xmlns="http://www.w3.org/2000/svg" viewBox="0 0 71.11 44" fill="#fff"><g transform="translate(0 0)"><path d="M3.2813 24.7734L14.3133 0H20.3101L34.6234 32.1193H15.7087L12.484 24.7734H23.1011L17.3494 11.8433L8.29754 32.1193H0"/><path d="M71.1139 32.1193H63.7215V17.5775L56.1029 32.1193H51.4827L43.864 17.5775V32.1193H36.4717V0H43.864L53.7834 19.7325L63.7215 0H71.1139V32.1193Z"/></g><g transform="translate(-0.936 0) scale(0.187)"><path d="M36.79 193.18H49.58Q51.97 193.18 54.03 193.76Q56.08 194.33 57.56 195.45Q59.05 196.56 59.9 198.31Q60.76 200.05 60.76 202.39Q60.76 205.56 58.99 207.56Q57.23 209.56 54.42 210.5V210.6Q56.08 210.71 57.54 211.46Q58.99 212.22 60.06 213.44Q61.13 214.66 61.75 216.27Q62.37 217.88 62.37 219.76Q62.37 222.25 61.36 224.15Q60.35 226.05 58.58 227.35Q56.81 228.65 54.47 229.32Q52.13 230 49.43 230H36.79ZM41.78 208.47H48.59Q50 208.47 51.25 208.19Q52.49 207.9 53.43 207.22Q54.37 206.55 54.91 205.51Q55.46 204.47 55.46 202.96Q55.46 200.78 54.05 199.16Q52.65 197.55 49.63 197.55H41.78ZM41.78 225.63H49.11Q50.26 225.63 51.64 225.4Q53.01 225.16 54.21 224.46Q55.41 223.76 56.24 222.56Q57.07 221.37 57.07 219.39Q57.07 216.12 54.94 214.48Q52.81 212.84 49.17 212.84H41.78Z M78.13 193.18H82.65L98.41 230H92.59L88.89 220.9H71.37L67.73 230H61.91ZM87.07 216.53 80.21 199.63H80.11L73.14 216.53Z M100.23 193.18H106.78L127.06 223.45H127.17V193.18H132.16V230H125.81L105.33 199.74H105.22V230H100.23Z M170.01 209.41V227.56Q168.66 228.39 166.95 229.01Q165.23 229.64 163.38 230.08Q161.54 230.52 159.64 230.73Q157.74 230.94 156.08 230.94Q151.4 230.94 147.73 229.38Q144.07 227.82 141.54 225.16Q139.02 222.51 137.7 219Q136.37 215.49 136.37 211.59Q136.37 207.48 137.8 203.95Q139.23 200.41 141.75 197.81Q144.27 195.21 147.81 193.73Q151.35 192.25 155.56 192.25Q160.65 192.25 163.88 193.52Q167.1 194.8 169.29 197.03L165.75 200.83Q163.46 198.64 160.91 197.79Q158.37 196.93 155.56 196.93Q152.39 196.93 149.84 198.1Q147.29 199.27 145.47 201.24Q143.65 203.22 142.66 205.9Q141.67 208.58 141.67 211.59Q141.67 214.71 142.77 217.39Q143.86 220.07 145.78 222.04Q147.71 224.02 150.31 225.14Q152.91 226.26 155.97 226.26Q158.63 226.26 160.99 225.76Q163.36 225.27 165.02 224.33V214.09H156.86V209.41Z M176.15 193.18H181.14V225.32H198.04V230H176.15Z M211.72 193.18H216.24L232 230H226.17L222.48 220.9H204.96L201.32 230H195.49ZM220.66 216.53 213.8 199.63H213.69L206.73 216.53Z M232.99 193.18H245.83Q249.73 193.18 252.67 194.07Q255.61 194.95 257.76 196.43Q259.92 197.92 261.35 199.84Q262.78 201.76 263.61 203.79Q264.45 205.82 264.81 207.85Q265.17 209.88 265.17 211.59Q265.17 215.13 263.87 218.43Q262.57 221.73 260.03 224.31Q257.48 226.88 253.71 228.44Q249.94 230 245 230H232.99ZM237.98 225.32H244.27Q247.44 225.32 250.28 224.46Q253.11 223.6 255.24 221.89Q257.37 220.17 258.62 217.6Q259.87 215.02 259.87 211.59Q259.87 209.82 259.3 207.46Q258.73 205.09 257.14 202.96Q255.55 200.83 252.75 199.35Q249.94 197.86 245.47 197.86H237.98Z M269.39 193.18H293.15V197.86H274.38V208.84H291.85V213.52H274.38V225.32H294.09V230H269.39Z M299.29 222.3Q300.64 224.33 302.74 225.29Q304.85 226.26 307.09 226.26Q308.33 226.26 309.63 225.87Q310.93 225.48 312 224.7Q313.07 223.92 313.74 222.77Q314.42 221.63 314.42 220.12Q314.42 217.99 313.07 216.87Q311.71 215.75 309.71 215Q307.71 214.24 305.34 213.54Q302.98 212.84 300.98 211.59Q298.97 210.34 297.62 208.24Q296.27 206.13 296.27 202.54Q296.27 200.93 296.97 199.11Q297.67 197.29 299.18 195.78Q300.69 194.28 303.06 193.26Q305.42 192.25 308.75 192.25Q311.77 192.25 314.52 193.08Q317.28 193.91 319.36 196.46L315.3 200.15Q314.37 198.7 312.65 197.81Q310.93 196.93 308.75 196.93Q306.67 196.93 305.29 197.47Q303.91 198.02 303.08 198.88Q302.25 199.74 301.91 200.72Q301.57 201.71 301.57 202.54Q301.57 204.88 302.93 206.13Q304.28 207.38 306.28 208.16Q308.28 208.94 310.65 209.56Q313.01 210.19 315.02 211.31Q317.02 212.42 318.37 214.32Q319.72 216.22 319.72 219.55Q319.72 222.2 318.71 224.33Q317.69 226.46 315.98 227.92Q314.26 229.38 311.92 230.16Q309.58 230.94 306.93 230.94Q303.39 230.94 300.22 229.69Q297.05 228.44 295.18 225.84Z M324.14 193.18H329.13V208.47H348.22V193.18H353.21V230H348.22V213.15H329.13V230H324.14Z"/></g></svg>
