<svg xmlns="http://www.w3.org/2000/svg" viewBox="0 0 71.11 44" fill="#fff"><g transform="translate(0 0)"><path d="M3.2813 24.7734L14.3133 0H20.3101L34.6234 32.1193H15.7087L12.484 24.7734H23.1011L17.3494 11.8433L8.29754 32.1193H0"/><path d="M71.1139 32.1193H63.7215V17.5775L56.1029 32.1193H51.4827L43.864 17.5775V32.1193H36.4717V0H43.864L53.7834 19.7325L63.7215 0H71.1139V32.1193Z"/></g><g transform="translate(-1.13 0) scale(0.187)"><path d="M62.3 193.18H67.29V208.47H86.37V193.18H91.36V230H86.37V213.15H67.29V230H62.3Z M114.76 230.94Q110.55 230.94 107.02 229.45Q103.48 227.97 100.96 225.37Q98.44 222.77 97.01 219.24Q95.58 215.7 95.58 211.59Q95.58 207.48 97.01 203.95Q98.44 200.41 100.96 197.81Q103.48 195.21 107.02 193.73Q110.55 192.25 114.76 192.25Q118.98 192.25 122.51 193.73Q126.05 195.21 128.57 197.81Q131.09 200.41 132.52 203.95Q133.95 207.48 133.95 211.59Q133.95 215.7 132.52 219.24Q131.09 222.77 128.57 225.37Q126.05 227.97 122.51 229.45Q118.98 230.94 114.76 230.94ZM114.76 226.26Q117.94 226.26 120.48 225.09Q123.03 223.92 124.85 221.94Q126.67 219.96 127.66 217.29Q128.65 214.61 128.65 211.59Q128.65 208.58 127.66 205.9Q126.67 203.22 124.85 201.24Q123.03 199.27 120.48 198.1Q117.94 196.93 114.76 196.93Q111.59 196.93 109.04 198.1Q106.5 199.27 104.68 201.24Q102.86 203.22 101.87 205.9Q100.88 208.58 100.88 211.59Q100.88 214.61 101.87 217.29Q102.86 219.96 104.68 221.94Q106.5 223.92 109.04 225.09Q111.59 226.26 114.76 226.26Z M138.16 193.18H144.72L165 223.45H165.1V193.18H170.09V230H163.75L143.26 199.74H143.16V230H138.16Z M175.76 193.18H188.6Q192.5 193.18 195.44 194.07Q198.38 194.95 200.54 196.43Q202.7 197.92 204.13 199.84Q205.56 201.76 206.39 203.79Q207.22 205.82 207.58 207.85Q207.95 209.88 207.95 211.59Q207.95 215.13 206.65 218.43Q205.35 221.73 202.8 224.31Q200.25 226.88 196.48 228.44Q192.71 230 187.77 230H175.76ZM180.75 225.32H187.04Q190.22 225.32 193.05 224.46Q195.88 223.6 198.02 221.89Q200.15 220.17 201.4 217.6Q202.64 215.02 202.64 211.59Q202.64 209.82 202.07 207.46Q201.5 205.09 199.91 202.96Q198.33 200.83 195.52 199.35Q192.71 197.86 188.24 197.86H180.75Z M216.48 193.18V215.75Q216.48 217.47 216.94 219.31Q217.41 221.16 218.5 222.72Q219.6 224.28 221.36 225.27Q223.13 226.26 225.73 226.26Q228.33 226.26 230.1 225.27Q231.87 224.28 232.96 222.72Q234.05 221.16 234.52 219.31Q234.99 217.47 234.99 215.75V193.18H239.98V216.53Q239.98 219.76 238.89 222.38Q237.8 225.01 235.87 226.93Q233.95 228.86 231.35 229.9Q228.75 230.94 225.73 230.94Q222.72 230.94 220.12 229.9Q217.52 228.86 215.59 226.93Q213.67 225.01 212.58 222.38Q211.48 219.76 211.48 216.53V193.18Z M245.8 193.18H258.75Q262.29 193.18 264.58 194.15Q266.86 195.11 268.19 196.59Q269.52 198.07 270.04 199.92Q270.56 201.76 270.56 203.48Q270.56 205.25 269.93 206.89Q269.31 208.52 268.14 209.85Q266.97 211.18 265.28 212.09Q263.59 213 261.51 213.2L271.96 230H265.72L256.36 213.78H250.8V230H245.8ZM250.8 209.41H257.35Q258.8 209.41 260.23 209.17Q261.66 208.94 262.78 208.32Q263.9 207.69 264.58 206.52Q265.25 205.35 265.25 203.48Q265.25 201.61 264.58 200.44Q263.9 199.27 262.78 198.64Q261.66 198.02 260.23 197.79Q258.8 197.55 257.35 197.55H250.8Z M286.16 193.18H290.68L306.44 230H300.61L296.92 220.9H279.4L275.76 230H269.93ZM295.1 216.53 288.24 199.63H288.13L281.16 216.53Z M309.35 222.3Q310.7 224.33 312.81 225.29Q314.91 226.26 317.15 226.26Q318.4 226.26 319.7 225.87Q321 225.48 322.06 224.7Q323.13 223.92 323.8 222.77Q324.48 221.63 324.48 220.12Q324.48 217.99 323.13 216.87Q321.78 215.75 319.77 215Q317.77 214.24 315.41 213.54Q313.04 212.84 311.04 211.59Q309.04 210.34 307.68 208.24Q306.33 206.13 306.33 202.54Q306.33 200.93 307.03 199.11Q307.74 197.29 309.24 195.78Q310.75 194.28 313.12 193.26Q315.48 192.25 318.81 192.25Q321.83 192.25 324.58 193.08Q327.34 193.91 329.42 196.46L325.36 200.15Q324.43 198.7 322.71 197.81Q321 196.93 318.81 196.93Q316.73 196.93 315.35 197.47Q313.98 198.02 313.14 198.88Q312.31 199.74 311.97 200.72Q311.64 201.71 311.64 202.54Q311.64 204.88 312.99 206.13Q314.34 207.38 316.34 208.16Q318.34 208.94 320.71 209.56Q323.08 210.19 325.08 211.31Q327.08 212.42 328.43 214.32Q329.78 216.22 329.78 219.55Q329.78 222.2 328.77 224.33Q327.76 226.46 326.04 227.92Q324.32 229.38 321.98 230.16Q319.64 230.94 316.99 230.94Q313.46 230.94 310.28 229.69Q307.11 228.44 305.24 225.84Z"/></g></svg>
