<svg xmlns="http://www.w3.org/2000/svg" viewBox="0 0 71.11 44" fill="#fff"><g transform="translate(0 0)"><path d="M3.2813 24.7734L14.3133 0H20.3101L34.6234 32.1193H15.7087L12.484 24.7734H23.1011L17.3494 11.8433L8.29754 32.1193H0"/><path d="M71.1139 32.1193H63.7215V17.5775L56.1029 32.1193H51.4827L43.864 17.5775V32.1193H36.4717V0H43.864L53.7834 19.7325L63.7215 0H71.1139V32.1193Z"/></g><g transform="translate(-1.374 0) scale(0.187)"><path d="M66.2 193.18H71.19V230H66.2Z M77.69 193.18H84.24L104.52 223.45H104.62V193.18H109.62V230H103.27L82.78 199.74H82.68V230H77.69Z M115.28 193.18H128.13Q132.03 193.18 134.97 194.07Q137.9 194.95 140.06 196.43Q142.22 197.92 143.65 199.84Q145.08 201.76 145.91 203.79Q146.74 205.82 147.11 207.85Q147.47 209.88 147.47 211.59Q147.47 215.13 146.17 218.43Q144.87 221.73 142.32 224.31Q139.78 226.88 136.01 228.44Q132.24 230 127.3 230H115.28ZM120.28 225.32H126.57Q129.74 225.32 132.57 224.46Q135.41 223.6 137.54 221.89Q139.67 220.17 140.92 217.6Q142.17 215.02 142.17 211.59Q142.17 209.82 141.6 207.46Q141.02 205.09 139.44 202.96Q137.85 200.83 135.04 199.35Q132.24 197.86 127.76 197.86H120.28Z M168.58 230.94Q164.37 230.94 160.84 229.45Q157.3 227.97 154.78 225.37Q152.26 222.77 150.83 219.24Q149.4 215.7 149.4 211.59Q149.4 207.48 150.83 203.95Q152.26 200.41 154.78 197.81Q157.3 195.21 160.84 193.73Q164.37 192.25 168.58 192.25Q172.8 192.25 176.33 193.73Q179.87 195.21 182.39 197.81Q184.91 200.41 186.34 203.95Q187.77 207.48 187.77 211.59Q187.77 215.7 186.34 219.24Q184.91 222.77 182.39 225.37Q179.87 227.97 176.33 229.45Q172.8 230.94 168.58 230.94ZM168.58 226.26Q171.76 226.26 174.3 225.09Q176.85 223.92 178.67 221.94Q180.49 219.96 181.48 217.29Q182.47 214.61 182.47 211.59Q182.47 208.58 181.48 205.9Q180.49 203.22 178.67 201.24Q176.85 199.27 174.3 198.1Q171.76 196.93 168.58 196.93Q165.41 196.93 162.86 198.1Q160.32 199.27 158.5 201.24Q156.68 203.22 155.69 205.9Q154.7 208.58 154.7 211.59Q154.7 214.61 155.69 217.29Q156.68 219.96 158.5 221.94Q160.32 223.92 162.86 225.09Q165.41 226.26 168.58 226.26Z M191.98 193.18H198.54L218.82 223.45H218.92V193.18H223.91V230H217.57L197.08 199.74H196.98V230H191.98Z M230.41 193.18H254.18V197.86H235.4V208.84H252.88V213.52H235.4V225.32H255.11V230H230.41Z M260.31 222.3Q261.66 224.33 263.77 225.29Q265.88 226.26 268.11 226.26Q269.36 226.26 270.66 225.87Q271.96 225.48 273.03 224.7Q274.09 223.92 274.77 222.77Q275.44 221.63 275.44 220.12Q275.44 217.99 274.09 216.87Q272.74 215.75 270.74 215Q268.74 214.24 266.37 213.54Q264 212.84 262 211.59Q260 210.34 258.65 208.24Q257.3 206.13 257.3 202.54Q257.3 200.93 258 199.11Q258.7 197.29 260.21 195.78Q261.72 194.28 264.08 193.26Q266.45 192.25 269.78 192.25Q272.79 192.25 275.55 193.08Q278.3 193.91 280.38 196.46L276.33 200.15Q275.39 198.7 273.68 197.81Q271.96 196.93 269.78 196.93Q267.7 196.93 266.32 197.47Q264.94 198.02 264.11 198.88Q263.28 199.74 262.94 200.72Q262.6 201.71 262.6 202.54Q262.6 204.88 263.95 206.13Q265.3 207.38 267.31 208.16Q269.31 208.94 271.67 209.56Q274.04 210.19 276.04 211.31Q278.04 212.42 279.4 214.32Q280.75 216.22 280.75 219.55Q280.75 222.2 279.73 224.33Q278.72 226.46 277 227.92Q275.29 229.38 272.95 230.16Q270.61 230.94 267.96 230.94Q264.42 230.94 261.25 229.69Q258.08 228.44 256.2 225.84Z M285.17 193.18H290.16V230H285.17Z M308.2 193.18H312.73L328.48 230H322.66L318.97 220.9H301.44L297.8 230H291.98ZM317.15 216.53 310.28 199.63H310.18L303.21 216.53Z"/></g></svg>
