<svg xmlns="http://www.w3.org/2000/svg" viewBox="0 0 71.11 44" fill="#fff"><g transform="translate(0 0)"><path d="M3.2813 24.7734L14.3133 0H20.3101L34.6234 32.1193H15.7087L12.484 24.7734H23.1011L17.3494 11.8433L8.29754 32.1193H0"/><path d="M71.1139 32.1193H63.7215V17.5775L56.1029 32.1193H51.4827L43.864 17.5775V32.1193H36.4717V0H43.864L53.7834 19.7325L63.7215 0H71.1139V32.1193Z"/></g><g transform="translate(-1.345 0) scale(0.187)"><path d="M121.89 193.18H126.88V230H121.89Z M134.47 222.3Q135.82 224.33 137.93 225.29Q140.04 226.26 142.27 226.26Q143.52 226.26 144.82 225.87Q146.12 225.48 147.19 224.7Q148.25 223.92 148.93 222.77Q149.6 221.63 149.6 220.12Q149.6 217.99 148.25 216.87Q146.9 215.75 144.9 215Q142.9 214.24 140.53 213.54Q138.16 212.84 136.16 211.59Q134.16 210.34 132.81 208.24Q131.46 206.13 131.46 202.54Q131.46 200.93 132.16 199.11Q132.86 197.29 134.37 195.78Q135.88 194.28 138.24 193.26Q140.61 192.25 143.94 192.25Q146.95 192.25 149.71 193.08Q152.46 193.91 154.54 196.46L150.49 200.15Q149.55 198.7 147.84 197.81Q146.12 196.93 143.94 196.93Q141.86 196.93 140.48 197.47Q139.1 198.02 138.27 198.88Q137.44 199.74 137.1 200.72Q136.76 201.71 136.76 202.54Q136.76 204.88 138.11 206.13Q139.46 207.38 141.47 208.16Q143.47 208.94 145.83 209.56Q148.2 210.19 150.2 211.31Q152.2 212.42 153.56 214.32Q154.91 216.22 154.91 219.55Q154.91 222.2 153.89 224.33Q152.88 226.46 151.16 227.92Q149.45 229.38 147.11 230.16Q144.77 230.94 142.12 230.94Q138.58 230.94 135.41 229.69Q132.24 228.44 130.36 225.84Z M159.33 193.18H172.28Q175.81 193.18 178.1 194.15Q180.39 195.11 181.71 196.59Q183.04 198.07 183.56 199.92Q184.08 201.76 184.08 203.48Q184.08 205.25 183.46 206.89Q182.83 208.52 181.66 209.85Q180.49 211.18 178.8 212.09Q177.11 213 175.03 213.2L185.48 230H179.24L169.88 213.78H164.32V230H159.33ZM164.32 209.41H170.87Q172.33 209.41 173.76 209.17Q175.19 208.94 176.31 208.32Q177.42 207.69 178.1 206.52Q178.78 205.35 178.78 203.48Q178.78 201.61 178.1 200.44Q177.42 199.27 176.31 198.64Q175.19 198.02 173.76 197.79Q172.33 197.55 170.87 197.55H164.32Z M199.68 193.18H204.2L219.96 230H214.14L210.44 220.9H192.92L189.28 230H183.46ZM208.62 216.53 201.76 199.63H201.66L194.69 216.53Z M221.78 193.18H245.54V197.86H226.77V208.84H244.24V213.52H226.77V225.32H246.48V230H221.78Z M250.59 193.18H255.58V225.32H272.48V230H250.59Z"/></g></svg>
