<svg xmlns="http://www.w3.org/2000/svg" viewBox="0 0 90.10 44" fill="#fff"><path d="M3.2813 24.7734L14.3133 0H20.3101L34.6234 32.1193H15.7087L12.484 24.7734H23.1011L17.3494 11.8433L8.29754 32.1193H0"/><path d="M71.1139 32.1193H63.7215V17.5775L56.1029 32.1193H51.4827L43.864 17.5775V32.1193H36.4717V0H43.864L53.7834 19.7325L63.7215 0H71.1139V32.1193Z"/><path transform="translate(24.1838 -37.5890) scale(0.194580)" d="M258.44 193.18H265.88L277.58 221.06H277.78L289.38 193.18H296.82V230H291.82V199.74H291.72L279.29 230H275.96L263.54 199.74H263.43V230H258.44Z"/><path transform="translate(46.4865 -37.5890) scale(0.194580)" d="M198.28 214.3 184.34 193.18H190.74L200.77 209.36L211.12 193.18H217.2L203.27 214.3V230H198.28Z "/></svg>
