<svg xmlns="http://www.w3.org/2000/svg" viewBox="0 0 71.11 44" fill="#fff"><g transform="translate(0 0)"><path d="M3.2813 24.7734L14.3133 0H20.3101L34.6234 32.1193H15.7087L12.484 24.7734H23.1011L17.3494 11.8433L8.29754 32.1193H0"/><path d="M71.1139 32.1193H63.7215V17.5775L56.1029 32.1193H51.4827L43.864 17.5775V32.1193H36.4717V0H43.864L53.7834 19.7325L63.7215 0H71.1139V32.1193Z"/></g><g transform="translate(-1.339 0) scale(0.187)"><path d="M62.97 193.18H70.41L82.11 221.06H82.32L93.91 193.18H101.35V230H96.36V199.74H96.25L83.82 230H80.5L68.07 199.74H67.96V230H62.97Z M124.38 230.94Q120.17 230.94 116.64 229.45Q113.1 227.97 110.58 225.37Q108.06 222.77 106.63 219.24Q105.2 215.7 105.2 211.59Q105.2 207.48 106.63 203.95Q108.06 200.41 110.58 197.81Q113.1 195.21 116.64 193.73Q120.17 192.25 124.38 192.25Q128.6 192.25 132.13 193.73Q135.67 195.21 138.19 197.81Q140.71 200.41 142.14 203.95Q143.57 207.48 143.57 211.59Q143.57 215.7 142.14 219.24Q140.71 222.77 138.19 225.37Q135.67 227.97 132.13 229.45Q128.6 230.94 124.38 230.94ZM124.38 226.26Q127.56 226.26 130.1 225.09Q132.65 223.92 134.47 221.94Q136.29 219.96 137.28 217.29Q138.27 214.61 138.27 211.59Q138.27 208.58 137.28 205.9Q136.29 203.22 134.47 201.24Q132.65 199.27 130.1 198.1Q127.56 196.93 124.38 196.93Q121.21 196.93 118.66 198.1Q116.12 199.27 114.3 201.24Q112.48 203.22 111.49 205.9Q110.5 208.58 110.5 211.59Q110.5 214.61 111.49 217.29Q112.48 219.96 114.3 221.94Q116.12 223.92 118.66 225.09Q121.21 226.26 124.38 226.26Z M147.78 193.18H154.34L174.62 223.45H174.72V193.18H179.71V230H173.37L152.88 199.74H152.78V230H147.78Z M217.57 209.41V227.56Q216.22 228.39 214.5 229.01Q212.78 229.64 210.94 230.08Q209.09 230.52 207.19 230.73Q205.3 230.94 203.63 230.94Q198.95 230.94 195.29 229.38Q191.62 227.82 189.1 225.16Q186.58 222.51 185.25 219Q183.92 215.49 183.92 211.59Q183.92 207.48 185.35 203.95Q186.78 200.41 189.31 197.81Q191.83 195.21 195.36 193.73Q198.9 192.25 203.11 192.25Q208.21 192.25 211.43 193.52Q214.66 194.8 216.84 197.03L213.3 200.83Q211.02 198.64 208.47 197.79Q205.92 196.93 203.11 196.93Q199.94 196.93 197.39 198.1Q194.84 199.27 193.02 201.24Q191.2 203.22 190.22 205.9Q189.23 208.58 189.23 211.59Q189.23 214.71 190.32 217.39Q191.41 220.07 193.34 222.04Q195.26 224.02 197.86 225.14Q200.46 226.26 203.53 226.26Q206.18 226.26 208.55 225.76Q210.91 225.27 212.58 224.33V214.09H204.41V209.41Z M240.6 230.94Q236.39 230.94 232.86 229.45Q229.32 227.97 226.8 225.37Q224.28 222.77 222.85 219.24Q221.42 215.7 221.42 211.59Q221.42 207.48 222.85 203.95Q224.28 200.41 226.8 197.81Q229.32 195.21 232.86 193.73Q236.39 192.25 240.6 192.25Q244.82 192.25 248.35 193.73Q251.89 195.21 254.41 197.81Q256.93 200.41 258.36 203.95Q259.79 207.48 259.79 211.59Q259.79 215.7 258.36 219.24Q256.93 222.77 254.41 225.37Q251.89 227.97 248.35 229.45Q244.82 230.94 240.6 230.94ZM240.6 226.26Q243.78 226.26 246.32 225.09Q248.87 223.92 250.69 221.94Q252.51 219.96 253.5 217.29Q254.49 214.61 254.49 211.59Q254.49 208.58 253.5 205.9Q252.51 203.22 250.69 201.24Q248.87 199.27 246.32 198.1Q243.78 196.93 240.6 196.93Q237.43 196.93 234.88 198.1Q232.34 199.27 230.52 201.24Q228.7 203.22 227.71 205.9Q226.72 208.58 226.72 211.59Q226.72 214.61 227.71 217.29Q228.7 219.96 230.52 221.94Q232.34 223.92 234.88 225.09Q237.43 226.26 240.6 226.26Z M264 193.18H269V225.32H285.9V230H264Z M288.03 193.18H293.02V230H288.03Z M311.06 193.18H315.59L331.34 230H325.52L321.83 220.9H304.3L300.66 230H294.84ZM320.01 216.53 313.14 199.63H313.04L306.07 216.53Z"/></g></svg>
