<svg xmlns="http://www.w3.org/2000/svg" viewBox="0 0 71.11 44" fill="#fff"><g transform="translate(0 0)"><path d="M3.2813 24.7734L14.3133 0H20.3101L34.6234 32.1193H15.7087L12.484 24.7734H23.1011L17.3494 11.8433L8.29754 32.1193H0"/><path d="M71.1139 32.1193H63.7215V17.5775L56.1029 32.1193H51.4827L43.864 17.5775V32.1193H36.4717V0H43.864L53.7834 19.7325L63.7215 0H71.1139V32.1193Z"/></g><g transform="translate(-1.15 0) scale(0.187)"><path d="M24.36 193.18H30.91L51.19 223.45H51.3V193.18H56.29V230H49.95L29.46 199.74H29.35V230H24.36Z M62.79 193.18H86.55V197.86H67.78V208.84H85.25V213.52H67.78V225.32H87.49V230H62.79Z M86.92 193.18H92.12L100.23 222.62H100.33L109.02 193.18H114.74L123.42 222.62H123.53L131.64 193.18H136.84L126.13 230H120.87L111.93 199.94H111.83L102.93 230H97.68Z M147.08 225.32 168.04 197.86H147.71V193.18H174.28V197.86L153.43 225.32H174.59V230H147.08Z M178.02 193.18H201.79V197.86H183.01V208.84H200.49V213.52H183.01V225.32H202.72V230H178.02Z M218.37 193.18H222.9L238.65 230H232.83L229.14 220.9H211.61L207.97 230H202.15ZM227.32 216.53 220.45 199.63H220.35L213.38 216.53Z M240.47 193.18H245.47V225.32H262.37V230H240.47Z M276.04 193.18H280.57L296.32 230H290.5L286.81 220.9H269.28L265.64 230H259.82ZM284.99 216.53 278.12 199.63H278.02L271.05 216.53Z M298.14 193.18H304.69L324.97 223.45H325.08V193.18H330.07V230H323.73L303.24 199.74H303.13V230H298.14Z M335.74 193.18H348.58Q352.48 193.18 355.42 194.07Q358.36 194.95 360.52 196.43Q362.67 197.92 364.1 199.84Q365.53 201.76 366.37 203.79Q367.2 205.82 367.56 207.85Q367.93 209.88 367.93 211.59Q367.93 215.13 366.63 218.43Q365.33 221.73 362.78 224.31Q360.23 226.88 356.46 228.44Q352.69 230 347.75 230H335.74ZM340.73 225.32H347.02Q350.19 225.32 353.03 224.46Q355.86 223.6 357.99 221.89Q360.13 220.17 361.37 217.6Q362.62 215.02 362.62 211.59Q362.62 209.82 362.05 207.46Q361.48 205.09 359.89 202.96Q358.31 200.83 355.5 199.35Q352.69 197.86 348.22 197.86H340.73Z"/></g></svg>
