<svg xmlns="http://www.w3.org/2000/svg" viewBox="0 0 71.11 44" fill="#fff"><g transform="translate(0 0)"><path d="M3.2813 24.7734L14.3133 0H20.3101L34.6234 32.1193H15.7087L12.484 24.7734H23.1011L17.3494 11.8433L8.29754 32.1193H0"/><path d="M71.1139 32.1193H63.7215V17.5775L56.1029 32.1193H51.4827L43.864 17.5775V32.1193H36.4717V0H43.864L53.7834 19.7325L63.7215 0H71.1139V32.1193Z"/></g><g transform="translate(-0.653 0) scale(0.187)"><path d="M97.03 222.3Q98.38 224.33 100.49 225.29Q102.6 226.26 104.83 226.26Q106.08 226.26 107.38 225.87Q108.68 225.48 109.75 224.7Q110.81 223.92 111.49 222.77Q112.16 221.63 112.16 220.12Q112.16 217.99 110.81 216.87Q109.46 215.75 107.46 215Q105.46 214.24 103.09 213.54Q100.72 212.84 98.72 211.59Q96.72 210.34 95.37 208.24Q94.02 206.13 94.02 202.54Q94.02 200.93 94.72 199.11Q95.42 197.29 96.93 195.78Q98.44 194.28 100.8 193.26Q103.17 192.25 106.5 192.25Q109.51 192.25 112.27 193.08Q115.02 193.91 117.1 196.46L113.05 200.15Q112.11 198.7 110.4 197.81Q108.68 196.93 106.5 196.93Q104.42 196.93 103.04 197.47Q101.66 198.02 100.83 198.88Q100 199.74 99.66 200.72Q99.32 201.71 99.32 202.54Q99.32 204.88 100.67 206.13Q102.02 207.38 104.03 208.16Q106.03 208.94 108.39 209.56Q110.76 210.19 112.76 211.31Q114.76 212.42 116.12 214.32Q117.47 216.22 117.47 219.55Q117.47 222.2 116.45 224.33Q115.44 226.46 113.72 227.92Q112.01 229.38 109.67 230.16Q107.33 230.94 104.68 230.94Q101.14 230.94 97.97 229.69Q94.8 228.44 92.92 225.84Z M117.21 193.18H122.41L130.52 222.62H130.62L139.31 193.18H145.03L153.71 222.62H153.82L161.93 193.18H167.13L156.42 230H151.16L142.22 199.94H142.12L133.22 230H127.97Z M168.95 193.18H192.71V197.86H173.94V208.84H191.41V213.52H173.94V225.32H193.65V230H168.95Z M196.92 193.18H209.77Q213.67 193.18 216.61 194.07Q219.54 194.95 221.7 196.43Q223.86 197.92 225.29 199.84Q226.72 201.76 227.55 203.79Q228.38 205.82 228.75 207.85Q229.11 209.88 229.11 211.59Q229.11 215.13 227.81 218.43Q226.51 221.73 223.96 224.31Q221.42 226.88 217.65 228.44Q213.88 230 208.94 230H196.92ZM201.92 225.32H208.21Q211.38 225.32 214.21 224.46Q217.05 223.6 219.18 221.89Q221.31 220.17 222.56 217.6Q223.81 215.02 223.81 211.59Q223.81 209.82 223.24 207.46Q222.66 205.09 221.08 202.96Q219.49 200.83 216.68 199.35Q213.88 197.86 209.4 197.86H201.92Z M233.32 193.18H257.09V197.86H238.32V208.84H255.79V213.52H238.32V225.32H258.02V230H233.32Z M262.13 193.18H268.68L288.96 223.45H289.07V193.18H294.06V230H287.72L267.23 199.74H267.12V230H262.13Z"/></g></svg>
